{"title":"The.Shining.1980.DvDRiP.XViD.AC3(5.1).Optional MultiSub.Zen_Bud","uid":5798098,"size":1483856984,"categoryP":"video","categoryS":"movies","magnet":"?xt=urn:btih:5b4cc0cd869f4838a90572bc41b731f79eb0acbe&amp;dn=The.Shining.1980.DvDRiP.XViD.AC3%285.1%29.Optional+MultiSub.Zen_Bud&amp;tr=udp%3A%2F%2Ftracker.openbittorrent.com%3A80&amp;tr=udp%3A%2F%2Fopen.demonii.com%3A1337&amp;tr=udp%3A%2F%2Ftracker.coppersurfer.tk%3A6969&amp;tr=udp%3A%2F%2Fexodus.desync.com%3A6969","seeders":1,"leechers":0,"uploader":"Zen_Bud","files":-1,"time":1283157125,"description":"\nComplete name                    : The.Shining.1980.avi\nFormat                           : AVI\nFile size                        : 1.37 GiB\nDuration                         : 1h 54mn\nOverall bit rate                 : 1 710 Kbps\n\nVideo\n\nFormat                           : MPEG-4 Visual\nCodec ID/Hint                    : XviD\nDuration                         : 1h 54mn\nBit rate                         : 1 315 Kbps\nWidth                            : 718 pixels\nHeight                           : 576 pixels\nDisplay aspect ratio             : 16:9\nStream size                      : 1.05 GiB (77%)\nWriting library                  : XviD 1.1.2 (UTC 2006-11-01)\n\nAudio\n\nFormat                           : AC-3\nDuration                         : 1h 54mn\nBit rate                         : 384 Kbps\nChannel(s)                       : 6 channels\nChannel positions                : Front: L C R, Side: L R, LFE\nSampling rate                    : 48.0 KHz\nBit depth                        : 16 bits\nStream size                      : 315 MiB (22%)\nLanguage                         : English\n\n\nText #1\nLanguage                         : English\n\nText #2\nLanguage                         : Swedish\n\nText #3\nLanguage                         : Norwegian\n\nText #4\nLanguage                         : Danish\n\nText #5\nLanguage                         : Finnish\n\nText #6\nLanguage                         : Icelandic","torrent":{"xt":"urn:btih:5b4cc0cd869f4838a90572bc41b731f79eb0acbe","amp;dn":"The.Shining.1980.DvDRiP.XViD.AC3%285.1%29.Optional+MultiSub.Zen_Bud","amp;tr":["udp%3A%2F%2Ftracker.openbittorrent.com%3A80","udp%3A%2F%2Fopen.demonii.com%3A1337","udp%3A%2F%2Ftracker.coppersurfer.tk%3A6969","udp%3A%2F%2Fexodus.desync.com%3A6969"],"infoHash":"5b4cc0cd869f4838a90572bc41b731f79eb0acbe","infoHashBuffer":{"type":"Buffer","data":[91,76,192,205,134,159,72,56,169,5,114,188,65,183,49,247,158,176,172,190]},"announce":[],"urlList":[]}}